<?xml version="1.0" standalone="no"?>
<!DOCTYPE svg PUBLIC "-//W3C//DTD SVG 20010904//EN"
 "http://www.w3.org/TR/2001/REC-SVG-20010904/DTD/svg10.dtd">
<svg version="1.0" xmlns="http://www.w3.org/2000/svg"
 width="816.000000pt" height="816.000000pt" viewBox="0 0 816.000000 816.000000"
 preserveAspectRatio="xMidYMid meet">
<metadata>
Created by potrace 1.11, written by Peter Selinger 2001-2013
</metadata>
<g transform="translate(0.000000,816.000000) scale(0.100000,-0.100000)"
fill="#000000" stroke="none">
<path d="M4007 8044 c-2 -2 -55 -6 -118 -10 -63 -3 -130 -7 -149 -9 -19 -2
-55 -6 -80 -9 -25 -2 -64 -7 -87 -11 -23 -3 -55 -8 -70 -10 -35 -5 -79 -13
-118 -22 -16 -4 -39 -8 -50 -9 -26 -3 -74 -13 -105 -21 -14 -3 -29 -7 -35 -8
-83 -19 -221 -60 -223 -66 -2 -5 -7 -7 -11 -5 -4 3 -27 -2 -52 -10 -24 -9 -51
-17 -59 -19 -8 -2 -39 -12 -67 -24 -29 -11 -53 -18 -53 -15 0 4 -6 2 -12 -4
-7 -5 -47 -23 -90 -40 -42 -17 -98 -41 -125 -53 -26 -13 -51 -22 -55 -21 -5 1
-8 -3 -8 -8 0 -6 -7 -10 -15 -10 -18 0 -157 -70 -167 -85 -4 -5 -8 -6 -8 -1 0
5 -6 4 -12 -2 -13 -10 -89 -53 -135 -76 -13 -6 -23 -15 -23 -19 0 -5 -4 -5
-10 -2 -5 3 -10 2 -10 -3 0 -5 -8 -12 -17 -16 -18 -5 -54 -26 -63 -36 -3 -3
-27 -20 -55 -38 -27 -17 -54 -35 -60 -39 -5 -5 -23 -17 -40 -27 -16 -11 -35
-24 -42 -30 -6 -6 -36 -29 -67 -51 -31 -22 -56 -43 -56 -47 0 -4 -5 -8 -10 -8
-6 0 -23 -11 -38 -24 -15 -13 -65 -56 -112 -96 -106 -92 -350 -336 -350 -350
0 -6 -4 -8 -10 -5 -5 3 -10 2 -10 -3 0 -5 -9 -20 -21 -33 -49 -56 -137 -166
-196 -244 -49 -64 -63 -85 -63 -94 0 -6 -4 -11 -8 -11 -4 0 -16 -15 -27 -32
-10 -18 -21 -35 -25 -38 -3 -3 -17 -23 -30 -45 -13 -22 -28 -43 -33 -46 -5 -3
-9 -10 -9 -15 -1 -16 -21 -54 -29 -54 -4 0 -11 -10 -15 -22 -4 -13 -17 -40
-30 -60 -13 -20 -25 -43 -26 -50 -2 -7 -6 -15 -10 -18 -6 -5 -111 -207 -114
-220 -1 -7 -18 -46 -53 -122 -16 -38 -28 -68 -25 -68 3 0 -2 -12 -10 -27 -27
-50 -120 -327 -130 -388 -1 -5 -5 -16 -9 -22 -5 -7 -6 -13 -2 -13 3 0 1 -8 -4
-17 -5 -10 -12 -35 -15 -56 -3 -21 -10 -47 -16 -56 -5 -10 -7 -20 -5 -23 2 -2
0 -20 -5 -39 -5 -19 -12 -47 -14 -64 -3 -16 -10 -52 -15 -80 -5 -27 -7 -53 -5
-57 3 -5 1 -8 -4 -8 -5 0 -8 -10 -7 -22 1 -13 0 -27 -3 -33 -3 -5 -7 -21 -8
-35 -2 -14 -5 -43 -7 -65 -18 -164 -22 -261 -21 -480 0 -137 4 -290 8 -340 5
-49 10 -103 12 -120 1 -16 3 -30 4 -30 1 0 3 -11 5 -25 2 -14 5 -45 8 -70 3
-25 10 -64 15 -87 5 -23 7 -44 5 -47 -3 -2 -1 -11 3 -18 5 -7 10 -22 11 -33 1
-11 6 -36 10 -55 4 -19 8 -39 9 -45 1 -5 3 -12 4 -15 1 -3 3 -12 5 -20 2 -8 7
-26 10 -40 3 -14 8 -35 11 -47 2 -12 9 -34 14 -48 5 -14 7 -25 4 -25 -4 0 -1
-7 6 -15 6 -8 9 -18 7 -22 -3 -5 0 -22 7 -38 17 -39 38 -108 36 -119 -1 -5 3
-12 8 -15 6 -3 12 -17 13 -31 2 -14 7 -27 11 -30 4 -3 9 -15 11 -25 4 -21 12
-43 29 -85 6 -14 14 -34 18 -45 33 -87 130 -296 141 -305 4 -3 10 -16 14 -30
4 -14 12 -30 17 -36 4 -7 19 -31 31 -55 32 -60 67 -122 79 -136 6 -7 7 -13 2
-13 -5 0 -1 -5 8 -11 10 -5 18 -17 18 -24 0 -8 5 -15 10 -15 6 0 10 -5 10 -10
0 -9 100 -162 137 -210 6 -8 35 -46 64 -85 29 -38 56 -72 59 -75 4 -3 20 -24
37 -47 17 -23 33 -40 36 -37 3 3 8 -4 12 -15 3 -12 10 -21 15 -21 5 0 12 -9
15 -20 4 -11 11 -18 16 -15 5 4 9 -1 9 -10 0 -9 4 -13 10 -10 5 3 10 1 10 -5
0 -6 31 -42 68 -81 38 -38 67 -71 64 -74 -3 -3 -1 -5 5 -5 6 0 36 -24 66 -52
88 -85 139 -131 191 -173 27 -22 64 -52 82 -68 17 -15 37 -27 43 -27 6 0 11
-4 11 -9 0 -4 28 -28 62 -52 35 -24 69 -49 76 -55 6 -7 21 -16 32 -19 11 -3
20 -10 20 -14 0 -5 13 -14 30 -21 17 -7 30 -17 30 -22 0 -5 4 -7 9 -4 5 3 11
-1 15 -9 3 -8 12 -15 21 -15 8 0 15 -5 15 -12 0 -6 3 -8 7 -5 3 4 13 1 21 -5
19 -16 53 -36 74 -44 10 -3 18 -11 18 -16 0 -5 4 -6 10 -3 5 3 10 2 10 -3 0
-8 311 -167 340 -174 8 -2 17 -6 20 -9 5 -6 152 -68 175 -73 6 -2 24 -9 40
-15 17 -7 35 -14 40 -15 6 -1 15 -4 20 -8 15 -9 288 -92 293 -89 1 1 17 -5 36
-13 19 -8 37 -12 40 -9 2 3 11 1 18 -3 7 -5 18 -9 23 -10 53 -10 156 -31 195
-40 14 -3 41 -7 60 -9 19 -2 37 -5 40 -6 3 -1 10 -3 15 -4 158 -24 218 -31
395 -41 217 -13 547 -3 700 21 14 2 50 7 80 11 30 4 57 8 60 9 3 1 30 5 60 9
30 5 64 10 75 13 53 11 71 15 80 17 101 23 131 29 137 28 4 -1 25 4 45 12 33
12 96 31 141 43 27 7 38 10 52 16 8 3 53 18 100 33 47 15 88 32 91 37 3 5 9 8
13 8 3 -1 7 -1 9 0 1 0 11 2 22 4 12 2 43 14 70 27 28 12 53 21 58 20 4 -1 7
2 7 8 0 5 7 10 15 10 18 0 89 32 93 43 2 4 9 7 15 7 19 0 290 139 295 152 2 5
10 8 17 8 8 0 20 6 27 12 8 7 23 18 33 24 58 32 70 39 75 44 11 12 90 60 96
59 4 0 10 3 13 8 3 5 31 26 61 48 30 22 57 43 58 47 2 5 8 8 14 8 5 0 16 6 23
12 8 7 20 18 27 23 191 150 451 395 578 545 30 35 63 72 73 82 9 10 17 21 17
26 0 4 14 21 30 39 17 18 30 37 30 42 0 6 4 11 8 11 5 0 25 24 45 53 20 29 45
61 55 72 10 11 19 24 19 28 1 8 72 117 83 127 3 3 11 16 18 30 7 14 26 46 42
72 74 119 235 437 245 484 3 10 13 35 46 109 20 45 38 105 31 105 -4 0 -2 4 3
8 12 8 45 102 45 126 0 9 4 16 8 16 4 0 8 8 9 18 1 9 11 49 23 87 12 39 23 79
25 90 2 11 16 70 30 130 14 61 27 124 29 140 2 17 5 30 6 30 1 0 3 11 5 25 1
14 6 45 9 70 12 82 15 104 21 160 3 30 8 73 10 95 3 22 7 86 9 142 2 56 6 106
9 110 3 5 2 15 -3 23 -5 9 -5 19 2 27 7 9 7 13 -1 13 -7 0 -8 8 -2 23 5 13 5
30 1 37 -5 8 -4 22 1 31 6 11 5 20 -1 24 -6 4 -6 15 0 30 5 14 6 25 2 25 -4 0
-9 42 -10 93 -2 50 -4 104 -5 120 -1 15 -5 27 -10 27 -5 0 -4 6 2 13 6 8 9 16
6 19 -3 3 -8 25 -11 49 -3 24 -8 55 -10 69 -3 14 -7 45 -10 70 -5 43 -10 80
-14 90 -3 6 -3 9 -13 75 -5 28 -8 55 -9 60 0 6 -4 18 -9 27 -5 9 -12 33 -15
53 -7 47 -11 62 -23 103 -5 17 -7 32 -4 32 3 0 0 6 -6 14 -6 7 -12 25 -13 40
-1 14 -6 26 -10 26 -4 0 -8 11 -8 25 0 13 -4 34 -9 47 -10 24 -17 46 -21 63
-1 6 -6 16 -12 23 -6 6 -8 12 -5 12 3 0 0 15 -8 34 -8 18 -11 36 -8 40 4 3 1
6 -5 6 -7 0 -12 6 -12 14 0 17 -40 119 -96 241 -10 22 -17 43 -16 48 1 4 -3 7
-9 7 -5 0 -7 5 -4 10 3 6 2 10 -3 10 -5 0 -14 18 -21 40 -6 22 -16 40 -21 40
-6 0 -10 6 -10 13 0 15 -42 101 -52 105 -5 2 -8 8 -8 13 0 5 -32 62 -70 126
-39 64 -70 120 -70 125 0 4 -4 8 -10 8 -5 0 -10 7 -10 15 0 8 -4 15 -8 15 -5
0 -15 12 -23 28 -8 15 -17 29 -20 32 -3 3 -24 33 -48 68 -23 34 -46 62 -52 62
-6 0 -8 4 -5 8 3 5 -9 25 -27 45 -18 20 -43 51 -57 69 -14 18 -37 46 -52 62
-16 16 -28 32 -28 36 0 13 -337 350 -349 350 -7 0 -9 5 -6 10 3 6 -1 10 -9 10
-9 0 -16 4 -16 8 0 8 -69 66 -190 162 -18 14 -37 30 -44 35 -6 6 -34 26 -61
45 -28 19 -56 40 -63 47 -7 7 -20 13 -28 13 -8 0 -14 5 -14 10 0 6 -16 18 -35
27 -19 9 -35 20 -35 25 0 4 -4 8 -9 8 -6 0 -30 14 -54 30 -25 17 -50 30 -56
30 -6 0 -11 4 -11 9 0 5 -8 11 -17 14 -24 8 -118 61 -138 77 -8 7 -15 9 -15 4
0 -5 -4 -4 -8 1 -9 14 -130 75 -148 75 -8 0 -14 5 -14 10 0 6 -4 10 -10 10 -5
0 -45 16 -87 36 -43 20 -82 37 -88 39 -5 1 -23 7 -40 14 -79 32 -191 73 -205
76 -8 2 -34 10 -57 19 -24 8 -43 13 -43 10 0 -2 -13 2 -30 11 -16 8 -31 15
-32 14 -2 -1 -23 4 -48 11 -25 7 -52 14 -60 15 -8 2 -38 10 -66 18 -29 7 -59
12 -68 11 -9 -1 -16 1 -16 5 0 4 -10 8 -22 8 -13 1 -54 8 -93 17 -75 16 -139
26 -195 31 -19 2 -48 6 -65 8 -51 9 -146 18 -235 23 -47 2 -104 6 -128 7 -24
2 -46 -1 -48 -5 -3 -5 -10 -5 -16 -2 -19 12 -118 11 -118 0 0 -7 -3 -8 -8 -1
-7 10 -38 16 -45 9z"/>
</g>
</svg>
